<svg id="Layer_1" data-name="Layer 1" xmlns="http://www.w3.org/2000/svg" xmlns:xlink="http://www.w3.org/1999/xlink" viewBox="0 0 49.7 40.23"><defs><style>.cls-1{fill:none;}.cls-2{clip-path:url(#clip-path);}.cls-3{fill:#64a507;}</style><clipPath id="clip-path"><rect class="cls-1" y="0.03" width="49.7" height="40.2"/></clipPath></defs><title>1Artboard 1phone-logo</title><g class="cls-2"><path class="cls-3" d="M24.6,7.32c8.2.08,13.33-.43,14,8.66h10C48.63,1.9,36.35,0,24.34,0S.05,1.9.05,16H10c.77-9.26,6.5-8.74,14.63-8.66Zm0,0"/></g><path class="cls-3" d="M5,20.5c2.44,0,4.46.15,4.91-2.25A6.11,6.11,0,0,0,10,17.13H0C0,20.7,2.24,20.5,5,20.5Zm0,0"/><path class="cls-3" d="M38.7,17.13H38.6a5.24,5.24,0,0,0,.11,1.12c.48,2.21,2.5,2.08,4.93,2.08,2.78,0,5,.18,5-3.19Zm0,0"/><path class="cls-3" d="M33.81,14.71V13.29c0-.63-.73-.67-1.63-.67H30.71c-.9,0-1.63,0-1.63.67v2.17H18.66V13.29c0-.63-.73-.67-1.63-.67H15.56c-.9,0-1.63,0-1.63.67v2.65C11.56,18.4,3.8,28.9,3.52,30.17v8.48a1.42,1.42,0,0,0,1.42,1.42H42.81a1.42,1.42,0,0,0,1.42-1.42V30.13c-.28-1.23-8-11.72-10.41-14.19ZM18.15,31.31a1.38,1.38,0,1,1,1.38-1.38,1.38,1.38,0,0,1-1.38,1.38Zm0-4.73a1.38,1.38,0,1,1,1.38-1.38,1.38,1.38,0,0,1-1.38,1.38Zm0-4.73a1.38,1.38,0,1,1,1.38-1.38,1.38,1.38,0,0,1-1.38,1.38Zm5.68,9.47a1.38,1.38,0,1,1,1.38-1.38,1.38,1.38,0,0,1-1.38,1.38Zm0-4.73a1.38,1.38,0,1,1,1.38-1.38,1.38,1.38,0,0,1-1.38,1.38Zm0-4.73a1.38,1.38,0,1,1,1.38-1.38,1.38,1.38,0,0,1-1.38,1.38Zm5.68,9.47a1.38,1.38,0,1,1,1.38-1.38,1.38,1.38,0,0,1-1.38,1.38Zm0-4.73a1.38,1.38,0,1,1,1.38-1.38,1.38,1.38,0,0,1-1.38,1.38Zm0-4.73a1.38,1.38,0,1,1,1.38-1.38,1.38,1.38,0,0,1-1.38,1.38Zm0,0"/></svg>